<svg width="22" height="22" viewBox="0 0 22 22" fill="none" xmlns="http://www.w3.org/2000/svg">
<path d="M21.5 4.99993C21.5 4.20428 21.1839 3.44122 20.6213 2.87861C20.0587 2.316 19.2956 1.99993 18.5 1.99993H17.75V1.27103C17.75 0.867432 17.4397 0.521025 17.0361 0.500869C16.9347 0.495983 16.8333 0.511737 16.7382 0.547175C16.6431 0.582613 16.5561 0.636999 16.4826 0.707035C16.4091 0.777072 16.3506 0.861302 16.3106 0.954621C16.2706 1.04794 16.25 1.14841 16.25 1.24993V1.99993H5.75V1.27103C5.75 0.867432 5.43969 0.521025 5.03609 0.500869C4.93469 0.495983 4.83334 0.511737 4.7382 0.547175C4.64307 0.582613 4.55611 0.636999 4.48261 0.707035C4.40911 0.777072 4.3506 0.861302 4.31062 0.954621C4.27063 1.04794 4.25001 1.14841 4.25 1.24993V1.99993H3.5C2.70435 1.99993 1.94129 2.316 1.37868 2.87861C0.816071 3.44122 0.5 4.20428 0.5 4.99993V5.56243C0.5 5.61216 0.519754 5.65985 0.554918 5.69501C0.590081 5.73018 0.637772 5.74993 0.6875 5.74993H21.3125C21.3622 5.74993 21.4099 5.73018 21.4451 5.69501C21.4802 5.65985 21.5 5.61216 21.5 5.56243V4.99993ZM0.5 18.4999C0.5 19.2956 0.816071 20.0586 1.37868 20.6213C1.94129 21.1839 2.70435 21.4999 3.5 21.4999H18.5C19.2956 21.4999 20.0587 21.1839 20.6213 20.6213C21.1839 20.0586 21.5 19.2956 21.5 18.4999V7.43743C21.5 7.3877 21.4802 7.34001 21.4451 7.30485C21.4099 7.26969 21.3622 7.24993 21.3125 7.24993H0.6875C0.637772 7.24993 0.590081 7.26969 0.554918 7.30485C0.519754 7.34001 0.5 7.3877 0.5 7.43743V18.4999Z" fill="#2C1A5D"/>
</svg>
