<svg width="24" height="25" viewBox="0 0 24 25" fill="none" xmlns="http://www.w3.org/2000/svg">
<path d="M18 11.1973V19.8223C18 20.0685 17.9515 20.3123 17.8573 20.5398C17.763 20.7673 17.6249 20.974 17.4508 21.1481C17.2767 21.3222 17.07 21.4603 16.8425 21.5545C16.615 21.6488 16.3712 21.6973 16.125 21.6973H4.875C4.37772 21.6973 3.90081 21.4997 3.54917 21.1481C3.19754 20.7965 3 20.3195 3 19.8223V8.57227C3 8.07498 3.19754 7.59807 3.54917 7.24644C3.90081 6.89481 4.37772 6.69727 4.875 6.69727H12.7256" stroke="#412689" stroke-width="1.5" stroke-linecap="round" stroke-linejoin="round"/>
<path d="M20.6879 4.00964L20.9967 3.70237C20.9951 3.70564 20.993 3.70868 20.9901 3.71153C20.9901 3.71158 20.9901 3.71162 20.99 3.71167L20.6892 4.01095L20.6879 4.00964ZM19.0182 5.68113L10.8586 13.8561L10.8335 13.8645L10.8422 13.8387L19.0162 5.67918L19.0182 5.68113Z" fill="#412689" stroke="#412689" stroke-width="1.5"/>
</svg>
